<?xml version="1.0" encoding="UTF-8"?>
<svg width="32px" height="32px" viewBox="0 0 32 32" version="1.1" xmlns="http://www.w3.org/2000/svg" xmlns:xlink="http://www.w3.org/1999/xlink">
    <!-- Generator: Sketch 47 (45396) - http://www.bohemiancoding.com/sketch -->
    <desc>Created with Sketch.</desc>
    <defs></defs>
    <g id="Page-1" stroke="none" stroke-width="1" fill="none" fill-rule="evenodd">
        <path d="M12.4837766,16 L0.728233712,4.24445712 C-0.242744571,3.27347884 -0.242744571,1.69921199 0.728233712,0.728233712 C1.69921199,-0.242744571 3.27347884,-0.242744571 4.24445712,0.728233712 L16,12.4837766 L27.7555429,0.728233712 C28.7265212,-0.242744571 30.300788,-0.242744571 31.2717663,0.728233712 C32.2427446,1.69921199 32.2427446,3.27347884 31.2717663,4.24445712 L19.5162234,16 L31.2717663,27.7555429 C32.2427446,28.7265212 32.2427446,30.300788 31.2717663,31.2717663 C30.300788,32.2427446 28.7265212,32.2427446 27.7555429,31.2717663 L16,19.5162234 L4.24445712,31.2717663 C3.27347884,32.2427446 1.69921199,32.2427446 0.728233712,31.2717663 C-0.242744571,30.300788 -0.242744571,28.7265212 0.728233712,27.7555429 L12.4837766,16 L12.4837766,16 Z" id="Icon-Close" fill="#C3D3EA" fill-rule="nonzero"></path>
    </g>
</svg>